<?xml version="1.0" encoding="UTF-8"?>
<svg id="Layer_1" data-name="Layer 1" xmlns="http://www.w3.org/2000/svg" viewBox="0 0 200 200">
  <path d="m119.74,76.78c-4.12-10.08-12.87-19.49-28.25-23.04l-43.55-10.2c-3.14-.78-4.25-3.05-4.25-4.75,0-2.7,1.95-4.26,5.35-4.26h46.32c10.65,0,19.32-8.66,19.32-19.32V.34H47.2C20.52.34,6.57,19.95,6.57,39.34c0,18.15,12.17,32.84,31.02,37.41l43.85,10.42c2.99.67,4.7,2.47,4.7,4.91s-1.97,5.17-5.72,5.17H30.63c-10.65,0-19.32,8.66-19.32,19.32v15.05h70.02c2.55,0,4.97-.18,7.29-.52,22.42-3.24,34.09-21.42,34.09-39.39,0-4.72-.91-9.91-2.96-14.93Z" style="fill: #1c288a;"/>
  <path d="m136.01,77.89h-13.45c2.06,5.02,2.96,10.21,2.96,14.93,0,17.98-11.67,36.15-34.09,39.39v67.45s14.64,0,14.64,0c9.84,0,17.83-7.98,17.83-17.83v-72.03h10.86c22.32,0,25.65,17.89,25.65,28.56,0,11.64.29,25.16-14.31,28.53-.71.16-1.44.23-2.17.25-1.13.02-2.73.05-2.8.06-9.21,1.38-13.93,9-13.93,18.15v14.32h8.67c16.6,0,31.5-6.35,41.95-17.88,3.91-4.32,7.14-9.31,9.62-14.82,3.91-8.64,5.99-18.53,5.99-29.02,0-35.36-23.61-60.06-57.43-60.06Z" style="fill: #dc8b4c;"/>
</svg>